<?xml version="1.0" encoding="utf-8"?>
<!-- Generator: Adobe Illustrator 18.1.0, SVG Export Plug-In . SVG Version: 6.00 Build 0)  -->
<svg version="1.2" baseProfile="tiny" id="Слой_1"
	 xmlns="http://www.w3.org/2000/svg" xmlns:xlink="http://www.w3.org/1999/xlink" x="0px" y="0px" viewBox="0 0 32 32"
	 xml:space="preserve">
<g>
	<circle fill="#5E93FF" cx="16" cy="16" r="16"/>
	<path fill="#FFFFFF" d="M16,3.2L16,3.2c-5.3,0-9.6,4.3-9.6,9.6v9.6v3.2C7.3,25.6,8,24.9,8,24c0-0.9,0.7-1.6,1.6-1.6
		s1.6,0.7,1.6,1.6c0,0.9,0.7,1.6,1.6,1.6s1.6-0.7,1.6-1.6c0-0.9,0.7-1.6,1.6-1.6s1.6,0.7,1.6,1.6c0,0.9,0.7,1.6,1.6,1.6
		s1.6-0.7,1.6-1.6c0-0.9,0.7-1.6,1.6-1.6S24,23.1,24,24c0,0.9,0.7,1.6,1.6,1.6v-3.2v-9.6C25.6,7.5,21.3,3.2,16,3.2z"/>
	<g>
		<circle fill="#1B3DAC" cx="12.8" cy="12.8" r="0.8"/>
		<circle fill="#1B3DAC" cx="19.2" cy="12.8" r="0.8"/>
	</g>
</g>
</svg>
